<svg xmlns="http://www.w3.org/2000/svg" width="256" height="256" viewBox="0 0 256 256">
  <defs>
    <linearGradient id="g" x1="0" y1="0" x2="1" y2="1">
      <stop offset="0" stop-color="#5b7054"/>
      <stop offset="1" stop-color="#b08b67"/>
    </linearGradient>
  </defs>
  <circle cx="128" cy="128" r="118" fill="none" stroke="#d8cfc0" stroke-width="6"/>
  <g fill="url(#g)" opacity="0.9">
    <path d="M128 46c-22 22-28 44-22 66 6 22 24 42 22 66-2-24 16-44 22-66 6-22 0-44-22-66z"/>
    <path d="M60 96c24-8 44-2 60 14 16 16 24 40 14 62 6-24-8-46-26-60-18-14-40-16-48-16z"/>
    <path d="M196 96c-24-8-44-2-60 14-16 16-24 40-14 62-6-24 8-46 26-60 18-14 40-16 48-16z"/>
  </g>
</svg>
